<svg width="22" height="25" viewBox="0 0 22 25" fill="none" xmlns="http://www.w3.org/2000/svg">
<path d="M12.5933 0C7.44228 0 3.26606 4.7276 3.26606 10.5597C3.26606 12.6319 3.79308 14.565 4.70394 16.1959C4.69725 16.1992 4.69068 16.2022 4.68397 16.2056L0.62561 20.7998L4.07306 24.7031L8.27759 19.9418C8.27634 19.9351 8.27465 19.9284 8.27334 19.9217C9.56488 20.6873 11.0345 21.1203 12.5933 21.1203C17.7444 21.1203 21.9199 16.3919 21.9199 10.5598C21.9198 4.7276 17.7443 0 12.5933 0ZM12.5933 4.69106C15.4559 4.69106 17.7759 7.31863 17.7759 10.5597C17.7759 13.8008 15.4559 16.4284 12.5933 16.4284C9.73074 16.4284 7.41001 13.8008 7.41001 10.5597C7.41001 7.31863 9.73072 4.69106 12.5933 4.69106Z" fill="#B7B7B7" fill-opacity="0.7"/>
</svg>
