<svg width="164" height="82" viewBox="0 0 164 82" fill="none" xmlns="http://www.w3.org/2000/svg">
<path d="M29.9894 44.659C28.8658 43.5584 27.5672 42.5608 26.1119 41.6839C24.0959 40.4703 21.5169 39.8531 18.4467 39.8531C16.0374 39.8531 13.6975 40.3108 11.4913 41.2134C9.27736 42.1185 7.30001 43.4839 5.61322 45.2709C3.93414 47.0503 2.56362 49.2539 1.5428 51.8227C0.519409 54.3915 0 57.3819 0 60.7066V60.8532C0 64.1805 0.519409 67.1684 1.54023 69.7372C2.56105 72.3085 3.94442 74.5147 5.64922 76.2915C7.35658 78.076 9.34679 79.4388 11.5607 80.3465C13.7669 81.249 16.0837 81.7067 18.4442 81.7067C21.468 81.7067 24.024 81.0767 26.0424 79.8374C27.5081 78.9348 28.8298 77.8369 29.9869 76.5589V80.9765H42.3627V26.4282H29.9869V44.659H29.9894ZM29.4109 56.4922C29.8917 57.7599 30.136 59.1767 30.136 60.7092V60.8558C30.136 62.3883 29.8917 63.8051 29.4109 65.0728C28.93 66.3379 28.2846 67.4333 27.4901 68.3255C26.7033 69.2075 25.7699 69.8966 24.7156 70.3697C23.6614 70.8428 22.512 71.0845 21.2958 71.0845C20.0795 71.0845 18.9276 70.8454 17.8733 70.3697C16.8139 69.894 15.8677 69.2023 15.0551 68.3178C14.24 67.4281 13.5818 66.3353 13.1035 65.0728C12.6227 63.8051 12.3784 62.3883 12.3784 60.8558V60.7092C12.3784 59.133 12.6227 57.7033 13.1009 56.4588C13.5792 55.2194 14.2375 54.1369 15.0551 53.2446C15.8677 52.3575 16.8139 51.6684 17.8733 51.1927C18.9276 50.717 20.0795 50.4779 21.2932 50.4779C22.5069 50.4779 23.6588 50.7196 24.7131 51.1927C25.7699 51.6684 26.7033 52.355 27.4875 53.2369C28.2846 54.1318 28.93 55.2246 29.4109 56.4897V56.4922Z" fill="white"/>
<path d="M71.2739 39.8557C69.8056 39.8557 68.466 40.0383 67.2909 40.3983C66.1184 40.7583 65.0358 41.252 64.069 41.8665C63.1073 42.4785 62.2228 43.1882 61.4411 43.975C61.1043 44.3144 60.7777 44.6641 60.4614 45.0215V40.5834H48.0856V80.979H60.4614V58.5725C60.4614 56.1323 61.0297 54.2835 62.1508 53.0775C63.2745 51.869 64.7813 51.2802 66.7509 51.2802C68.7205 51.2802 70.1785 51.8638 71.2302 53.0621C72.287 54.268 72.8218 56.122 72.8218 58.5699V80.9765H85.1976V55.0137C85.1976 50.3493 83.9762 46.6209 81.5669 43.9313C79.1396 41.2237 75.676 39.8506 71.2739 39.8506V39.8557Z" fill="white"/>
<path d="M119.235 66.6L118.778 67.0243C117.461 68.2483 116.116 69.2357 114.784 69.9582C113.501 70.6576 111.971 71.0099 110.238 71.0099C108.829 71.0099 107.544 70.7476 106.42 70.2282C105.291 69.7088 104.306 68.9888 103.491 68.0837C102.676 67.1786 102.043 66.0986 101.614 64.8695C101.179 63.6327 100.958 62.2802 100.958 60.8505V60.704C100.958 59.3232 101.179 58.0092 101.614 56.7981C102.046 55.5922 102.668 54.5199 103.463 53.6122C104.252 52.7097 105.191 51.9872 106.253 51.4677C107.302 50.9535 108.497 50.6938 109.801 50.6938C111.668 50.6938 113.242 51.0563 114.476 51.7737C115.756 52.5194 117.021 53.5377 118.24 54.8028L118.711 55.2913L126.361 47.0656L125.965 46.6285C124.067 44.5329 121.84 42.8615 119.343 41.6633C116.834 40.4599 113.648 39.8479 109.871 39.8479C106.782 39.8479 103.913 40.4059 101.336 41.5038C98.7624 42.6044 96.5202 44.124 94.6714 46.0242C92.8226 47.9245 91.3518 50.1769 90.3053 52.7226C89.2562 55.2707 88.7239 58.0041 88.7239 60.848V60.9945C88.7239 63.841 89.2562 66.5615 90.3053 69.0865C91.3544 71.609 92.8226 73.8383 94.674 75.7128C96.5254 77.5899 98.7676 79.0967 101.336 80.1947C103.91 81.2952 106.734 81.8532 109.724 81.8532C113.704 81.8532 117.001 81.1512 119.521 79.7678C122.005 78.4024 124.247 76.6257 126.181 74.4915L126.589 74.0415L119.23 66.5975L119.235 66.6Z" fill="white"/>
<path d="M136.926 0H109.855V27.071H136.926V0Z" fill="#00ABFF"/>
<path d="M136.927 0H151.233C158.279 0 164 5.72121 164 12.7667V27.0736H136.929V0H136.927Z" fill="#0C70F2"/>
<path d="M163.998 27.071H136.927V54.142H163.998V27.071Z" fill="#00D7EE"/>
</svg>
